<?xml version="1.0" encoding="iso-8859-1"?>
<!-- Generator: Adobe Illustrator 16.0.0, SVG Export Plug-In . SVG Version: 6.00 Build 0)  -->
<!DOCTYPE svg PUBLIC "-//W3C//DTD SVG 1.1//EN" "http://www.w3.org/Graphics/SVG/1.1/DTD/svg11.dtd">
<svg version="1.1" id="Layer_1" xmlns="http://www.w3.org/2000/svg" xmlns:xlink="http://www.w3.org/1999/xlink" x="0px" y="0px"
	 width="30.504px" height="29.538px" viewBox="0 0 30.504 29.538" style="enable-background:new 0 0 30.504 29.538;"
	 xml:space="preserve">
<g>
	<path style="fill:#FFFFFF;" d="M18.502,22.172c-0.815-0.546-7.785-5.294-9.664-8.617l-0.103-0.183l-0.212-0.008c-1.618-0.066-2.876,0.87-3.415,1.355
		c-0.22-0.223-0.444-0.452-0.673-0.688l-0.273-0.28l-0.271,0.282c-1.061,1.101-1.53,2.125-1.396,3.048
		c0.109,0.749,0.621,1.402,1.481,1.888c0.155,0.088,1.95,1.309,3.901,2.867c-0.337,0.344-1.562,1.137-2.006,1.453
		c-0.499,0.354-2.578,2.241-2.578,2.241l1.343,0.317l0.465,0.909c0,0,0.638-1.562,1.338-2.333c0.7-0.77,1.923-1.387,1.923-1.387
		s-0.661,0.944-1.135,1.86c-0.473,0.916-0.594,2.504-0.594,2.504l0.821-0.259l0.566,1.234c0,0,0.151-1.744,0.499-2.88
		c0.281-0.919,0.97-1.79,1.226-2.094c2.474,2.177,5.059,4.807,5.576,5.338c0.312,0.359,0.716,0.623,1.241,0.739
		c0.188,0.041,0.379,0.061,0.566,0.061c1.07,0,2.086-0.667,2.74-1.835c0.764-1.359,0.979-3.449-0.346-4.822
		C19.158,22.5,18.814,22.284,18.502,22.172z M8.012,20.974c-1.79-1.408-3.423-2.529-3.661-2.664
		c-0.659-0.373-1.031-0.823-1.106-1.339c-0.088-0.607,0.224-1.32,0.928-2.126c1.751,1.792,3.248,3.214,4.519,4.344
		C8.117,20.123,8.016,20.624,8.012,20.974z M9.124,18.558c-1.009-0.897-2.164-1.984-3.48-3.301c0.447-0.391,1.43-1.11,2.647-1.139
		c0.636,1.043,1.69,2.189,2.878,3.296C10.551,17.476,9.779,17.747,9.124,18.558z M9.893,22.522c0.064-0.485,0.214-1.152,0.552-1.838
		c2.226,1.813,3.49,2.475,4.043,2.708c-0.086,0.638-0.231,2.109,0.021,3.453C13.314,25.662,11.557,23.965,9.893,22.522z
		 M19.212,27.334c-0.471,0.839-1.37,1.65-2.484,1.404c-1.91-0.421-1.692-4.135-1.446-5.53l0.062-0.353l-0.351-0.082
		c-0.015-0.004-1.204-0.337-4.142-2.737c0.552-0.642,1.436-0.928,2.108-1.055c1.659,1.376,3.311,2.567,4.298,3.256
		c-0.03,0.014-0.058,0.029-0.083,0.044c-1.138,0.647-1.613,2.515-1.366,3.411c0.289,1.052,0.993,1.729,1.733,1.714
		c0.317-0.011,1.086-0.19,1.367-1.596l0.044-0.218l-0.169-0.143c-1.068-0.909-1.647-1.446-1.922-1.714
		c0.176-0.342,0.408-0.639,0.687-0.797c0.422-0.239,0.904-0.083,1.433,0.467C20.037,24.501,19.841,26.211,19.212,27.334z
		 M18.116,25.876c-0.131,0.479-0.352,0.766-0.604,0.774c-0.003,0-0.007,0-0.012,0c-0.315,0-0.755-0.401-0.964-1.159
		c-0.067-0.242-0.048-0.602,0.042-0.979C16.891,24.805,17.38,25.246,18.116,25.876z"/>
	<path style="fill:#FFFFFF;" d="M5.959,8.129L4.763,11.96c0,0,4.888,0.475,8.958,1.744c4.072,1.272,8.361,3.663,8.361,3.663l1.216-3.899
		c0,0-3.654-3.682-8.004-5.04C10.945,7.071,5.959,8.129,5.959,8.129z"/>
	<path style="fill:#FFFFFF;" d="M30.504,13.526l-1.423-1.493l0.14-0.453c0,0,1.253-2.306-1.904-1.88c-0.164,0.032-0.262,0.085-0.318,0.151L17.602,0
		L0,3.885l4.841,4.324l0.26-0.833c0,0,5.561-1.179,10.41,0.334c4.851,1.515,8.924,5.62,8.924,5.62l-0.453,1.453l3.636-0.702
		c-0.606,1.939-1.302,4.171-1.518,4.862l-1.035-0.324l-0.752,2.406l1.676-0.522l1.231,1.431l0.751-2.406l-1.12-0.351l1.644-5.266
		L30.504,13.526z M28.42,12.987c-0.125,0.402-0.553,0.626-0.955,0.501c-0.402-0.126-0.627-0.553-0.502-0.955
		c0.127-0.402,0.555-0.626,0.956-0.501C28.32,12.157,28.545,12.586,28.42,12.987z M27.71,10.595c0.398-0.118,1.071-0.24,0.891,0.334
		c-0.017,0.056-0.067,0.218-0.142,0.453L27.71,10.595z"/>
</g>
<g>
</g>
<g>
</g>
<g>
</g>
<g>
</g>
<g>
</g>
<g>
</g>
<g>
</g>
<g>
</g>
<g>
</g>
<g>
</g>
<g>
</g>
<g>
</g>
<g>
</g>
<g>
</g>
<g>
</g>
</svg>
