<?xml version="1.0" encoding="utf-8"?>
<!-- Generator: Adobe Illustrator 17.0.0, SVG Export Plug-In . SVG Version: 6.00 Build 0)  -->
<!DOCTYPE svg PUBLIC "-//W3C//DTD SVG 1.1//EN" "http://www.w3.org/Graphics/SVG/1.1/DTD/svg11.dtd">
<svg version="1.1" id="Layer_1" xmlns="http://www.w3.org/2000/svg" xmlns:xlink="http://www.w3.org/1999/xlink" x="0px" y="0px"
	 width="32px" height="32px" viewBox="0 0 32 32" enable-background="new 0 0 32 32" xml:space="preserve">
<g>
	<path style="fill:#FFFFFF;" d="M22.63,5.634c1.459,0,2.642-1.184,2.642-2.645c0-1.46-1.183-2.643-2.642-2.643c-1.462,0-2.645,1.183-2.645,2.643
		C19.985,4.45,21.168,5.634,22.63,5.634z"/>
	<path style="fill:#FFFFFF;" d="M28.326,9.137c0,0,0.15-2.953-2.966-2.953h-5.402c-3.006,0-2.984,2.727-2.986,2.953l0.001,8.38
		c0.049,0.452,0.495,0.967,1.049,0.967c0.551,0,0.956-0.499,1.005-0.952l0.939,13.345c0.069,0.679,0.548,0.932,1.139,0.932
		c0.589,0,1.068-0.253,1.138-0.932h0.832c0.072,0.679,0.551,0.932,1.137,0.932c0.591,0,1.07-0.253,1.141-0.932l0.966-13.354
		c0,0.453,0.439,0.963,0.992,0.963c0.552,0,0.993-0.517,1.042-0.969L28.326,9.137z"/>
	<ellipse style="fill:#FFFFFF;" cx="10.319" cy="2.945" rx="2.587" ry="2.635"/>
	<path style="fill:#FFFFFF;" d="M16.011,12.832c0.231-0.981-1.104-5.02-1.104-5.02c-0.149-0.381-0.858-1.548-2.852-1.56L8.157,6.264
		C6.226,6.156,5.51,7.263,5.333,7.848c0,0-1.295,4.068-1.081,4.984c0.142,0.602,1.218,1.341,2.35,1.88l-2.375,7.244l3.475-0.01
		l0.01,8.789c0.067,0.677,0.538,0.925,1.116,0.925c0.575,0,1.048-0.228,1.113-0.904h0.358c0.066,0.677,0.536,0.916,1.112,0.916
		c0.579,0,1.048-0.254,1.116-0.93l0.009-8.796l3.707,0.005l-2.262-7.396C14.988,14.035,15.882,13.376,16.011,12.832z"/>
</g>
</svg>
