<?xml version="1.0" encoding="utf-8"?>
<!-- Generator: Adobe Illustrator 17.0.0, SVG Export Plug-In . SVG Version: 6.00 Build 0)  -->
<!DOCTYPE svg PUBLIC "-//W3C//DTD SVG 1.1//EN" "http://www.w3.org/Graphics/SVG/1.1/DTD/svg11.dtd">
<svg version="1.1" id="Capa_1" xmlns="http://www.w3.org/2000/svg" xmlns:xlink="http://www.w3.org/1999/xlink" x="0px" y="0px"
	 width="200px" height="200px" viewBox="0 0 200 200" enable-background="new 0 0 200 200" xml:space="preserve">
<path style="fill:#FFFFFF;" d="M196.154,71.337c-1.631-8.204-10.108-12.748-14.828-18.872c-0.836-1.083-2.038-1.393-3.137-1.214
	c-0.292-2.728-0.886-5.37-2.204-7.345c-0.536-0.803-1.459-1.209-2.375-1.242c-7.033-10.959-21.449-15.212-34.109-16.138
	c-14.022-1.025-33.849,2.49-42.743,14.874c-0.388,0.016-0.778,0.104-1.136,0.273c-5.589-11.584-24.127-17.98-35.154-19.278
	c-16.127-1.899-31.186,6.671-37.153,21.754c-0.166,0.419-0.134,0.781,0.014,1.074c-0.015,0.405,0.063,0.816,0.278,1.189
	c0.105,0.184,0.186,0.398,0.282,0.592C18.587,52.774,11.493,56.8,7.909,63.97C3.68,72.428,3.903,83.758,3.896,92.931
	C3.877,118.904,5.99,144.9,5.116,170.872c-0.052,1.544,1.404,3.113,2.995,2.995c10.485-0.772,19.423-7.212,29.642-9.33
	c12.067-2.501,26.917-3.147,38.963-0.092c3.528,0.894,5.571,7.639,8.359,10.042c3.019,2.602,7.964,2.812,11.681,2.509
	c7.057-0.575,13.054-5.847,15.151-12.401c9.275-5.214,24.215-2.109,34.235-0.688c15.552,2.206,29.578,8.733,44.819,12.089
	c2.109,0.464,3.623-0.927,3.867-2.946c2.978-24.587,1.355-48.94,1.331-73.594C196.149,90.011,198.02,80.724,196.154,71.337z
	 M98.995,65.943c0.091-6.149,1.077-12.843,0.574-19.098c0.361-0.323,0.721-0.646,1.081-0.969c0.239-0.176,0.334-0.416,0.311-0.65
	c9.079-9.443,21.913-12.643,34.912-12.715c13.211-0.073,29.771,4.291,34.836,17.934c0.166,0.448,0.401,0.817,0.68,1.114
	c0.814,10.511,1.36,20.928,1.525,31.579c0.316,20.418-1.985,41.181,0.303,61.529c-0.675,0.18-1.226,0.634-1.586,1.274
	c-1.449-1.298-3.072-2.438-4.258-3.449c-5.332-4.547-11.07-7.13-18.006-8.323c-16.339-2.812-35.551,3.626-48.492,13.798
	c-0.069-0.121-0.133-0.247-0.201-0.369c1.027-0.149,1.948-0.892,1.849-2.134c-1.381-17.316-3.006-34.522-3.447-51.904
	C98.842,84.357,98.858,75.147,98.995,65.943z M60.469,28.432c6.746,0.527,13.274,3.222,19.007,6.669
	c5.617,3.378,8.416,8.73,13.257,12.675c0.165,0.134,0.342,0.217,0.517,0.309c-0.761,5.845-0.267,12.211-0.373,17.858
	c-0.172,9.206-0.105,18.413,0.126,27.617c0.414,16.478,1.091,33.466,4.563,49.665c-14.854-16.69-50.27-11.873-66.574,2.005
	c1.861-19.902,2.034-40.057,2.073-60.022c0.008-4.204,1.8-37.552-5.537-41.768C35.66,32.741,46.664,27.354,60.469,28.432z
	 M141.758,157.356c-8.207-0.945-23.74-2.735-30.44,4.237c-1.454-1.423-4.46-1.361-5.252,1.207
	c-2.076,6.728-13.658,12.591-19.064,4.862c-1.993-2.849-2.896-5.291-5.587-7.663c-4.118-3.633-12.936-2.949-17.995-3.225
	c-9.129-0.498-18.294,0.332-27.28,1.915c-8.735,1.539-16.377,7.073-24.955,8.755c0.543-21.871-0.453-43.935-1.189-65.781
	c-0.375-11.133-0.5-22.251,2.355-33.104c1.86-7.072,8.368-11.753,12.887-17.494c0.702,3.275,0.884,6.984,1.108,9.963
	c0.784,10.445,0.705,20.969,0.609,31.436c-0.169,18.44-2.022,37.132-0.802,55.549c0.061,0.93,0.518,1.529,1.103,1.873
	c0.086,1.372,1.457,2.606,2.919,1.665c17.134-11.035,53.304-22.626,66.079,0.516c1.125,2.038,3.323,1.796,4.584,0.548
	c0.413,0.06,0.85,0.005,1.271-0.224c14.036-7.638,27.499-13.031,43.782-12.5c10.442,0.341,17.438,7.087,24.754,13.352
	c0.745,0.881,1.949,0.924,2.913,0.465c0.86,0.046,1.738-0.51,1.854-1.709c0.056-0.582,0.08-1.165,0.101-1.749
	c0.01-0.261,0.019-0.522,0.03-0.784c0.004-0.101,0.106-0.947,0.037-0.619c0.032-0.151,0.065-0.302,0.098-0.453
	c0.127-0.13,0.241-0.274,0.336-0.436c0.105-0.187,0.186-0.388,0.24-0.596c0.274-0.27,0.474-0.652,0.512-1.171
	c1.527-20.885,2.279-42.111,2.189-63.053c-0.034-7.862-0.082-15.749-0.394-23.606c-0.015-0.374-0.024-0.783-0.034-1.182
	c4.343,4.587,9.549,8.432,11.766,14.603c3.033,8.443-0.226,20.095-0.22,28.882c0.015,22.619,1.373,44.927-0.942,67.461
	C173.173,165.387,158.324,159.262,141.758,157.356z"/>
</svg>
