<?xml version="1.0" encoding="iso-8859-1"?>
<!-- Generator: Adobe Illustrator 19.0.0, SVG Export Plug-In . SVG Version: 6.00 Build 0)  -->
<svg version="1.1" id="Layer_1" xmlns="http://www.w3.org/2000/svg" xmlns:xlink="http://www.w3.org/1999/xlink" x="0px" y="0px"
	 viewBox="0 0 512 512" style="enable-background:new 0 0 512 512;" xml:space="preserve">
<path style="fill:#F97177;" d="M167.951,230.27c0-21.51,14.809-38.947,33.078-38.947c22.836,0,41.348,21.796,41.348,48.683
	c0,33.608-39.828,66.466-74.427,84.155c-34.6-17.688-74.427-50.545-74.427-84.155c0-26.886,18.513-48.683,41.348-48.683
	C153.141,191.324,167.951,208.76,167.951,230.27z"/>
<path style="fill:#FFFFFF;" d="M201.03,181.957c-13.356,0-25.292,7.058-33.08,18.068c-7.786-11.011-19.722-18.068-33.08-18.068
	c-27.967,0-50.719,26.043-50.719,58.053c0,38.262,42.844,73.742,79.532,92.499c1.339,0.685,2.802,1.027,4.266,1.027
	c1.463,0,2.926-0.342,4.266-1.027c36.688-18.756,79.532-54.236,79.532-92.499C251.749,208,228.997,181.957,201.03,181.957z
	 M167.951,313.586c-44.896-24.121-65.056-54.088-65.056-73.576c0-21.678,14.345-39.312,31.978-39.312
	c13.073,0,23.709,13.268,23.709,29.576c0,5.175,4.194,9.371,9.371,9.371c5.176,0,9.371-4.196,9.371-9.371
	c0-16.309,10.636-29.576,23.709-29.576c17.632,0,31.978,17.636,31.978,39.312C233.007,259.499,212.846,289.465,167.951,313.586z"/>
<path style="fill:#FFFFFF;" d="M85.109,314.796H18.741v-52.607c0-5.175-4.194-9.371-9.371-9.371S0,257.014,0,262.189v61.978
	c0,5.175,4.194,9.371,9.371,9.371h75.739c5.176,0,9.371-4.196,9.371-9.371S90.286,314.796,85.109,314.796z"/>
<path style="fill:#FFFFFF;" d="M9.371,245.323c5.176,0,9.371-4.196,9.371-9.371v-48.115c0-5.175-4.194-9.371-9.371-9.371S0,182.662,0,187.837v48.115
	C0,241.127,4.194,245.323,9.371,245.323z"/>
<path style="fill:#FFFFFF;" d="M384.653,179.15c-4.804-1.942-10.263,0.375-12.203,5.17l-22.442,55.439c-1.942,4.797,0.374,10.26,5.17,12.202
	c1.153,0.466,2.343,0.687,3.513,0.687c3.706,0,7.214-2.213,8.69-5.857l22.442-55.438
	C391.764,186.555,389.449,181.091,384.653,179.15z"/>
<path style="fill:#FFFFFF;" d="M351.502,261.043c-4.799-1.943-10.26,0.374-12.203,5.17l-13.351,32.98l-46.501-114.872
	c-1.943-4.797-7.403-7.112-12.203-5.17c-4.797,1.942-7.11,7.405-5.17,12.202l55.187,136.33c1.432,3.54,4.868,5.855,8.686,5.855
	s7.254-2.316,8.686-5.855l22.037-54.436C358.612,268.448,356.298,262.986,351.502,261.043z"/>
<path style="fill:#FFFFFF;" d="M502.629,314.796h-66.368V264.11h43.647c5.176,0,9.371-4.196,9.371-9.371s-4.194-9.371-9.371-9.371h-43.647v-48.162h66.368
	c5.176,0,9.371-4.196,9.371-9.371s-4.194-9.371-9.371-9.371h-75.739c-5.176,0-9.371,4.196-9.371,9.371v136.33
	c0,5.175,4.194,9.371,9.371,9.371h75.739c5.176,0,9.371-4.196,9.371-9.371S507.806,314.796,502.629,314.796z"/>
<g>
</g>
<g>
</g>
<g>
</g>
<g>
</g>
<g>
</g>
<g>
</g>
<g>
</g>
<g>
</g>
<g>
</g>
<g>
</g>
<g>
</g>
<g>
</g>
<g>
</g>
<g>
</g>
<g>
</g>
</svg>
