<?xml version="1.0" encoding="utf-8"?>
<!-- Generator: Adobe Illustrator 17.0.0, SVG Export Plug-In . SVG Version: 6.00 Build 0)  -->
<!DOCTYPE svg PUBLIC "-//W3C//DTD SVG 1.1//EN" "http://www.w3.org/Graphics/SVG/1.1/DTD/svg11.dtd">
<svg version="1.1" id="Capa_1" xmlns="http://www.w3.org/2000/svg" xmlns:xlink="http://www.w3.org/1999/xlink" x="0px" y="0px"
	 width="200px" height="200px" viewBox="0 0 200 200" enable-background="new 0 0 200 200" xml:space="preserve">
<path d="M188.514,122.054c-9.982,2.529-18.165,7.393-25.065,14.334c-5.058-9.004-12.202-17.638-18.559-25.412
	c-4.04-4.941-9.122-12.228-15.827-13.633c0.775-0.593,1.388-1.474,1.697-2.684c0.888-3.471,2.371-6.665,4.623-9.478
	c1.102-1.377,2.487-2.555,3.828-3.689c0.614-0.519,1.372-0.8,1.946-1.374c0.749-0.749,1.12-1.889,1.622-2.825
	c6.84-7.545,12.734-17.934,17.944-25.554c7.06-10.325,16.842-26.226,8.889-38.543c-8.634-13.372-27.217-8.256-38.049-1.611
	c-16.542,10.148-28.277,26.825-39.42,42.428c-0.165-0.637-0.459-1.27-0.924-1.871C79.14,36.516,35.317-5.591,15.599,20.137
	c-19.383,25.289,17.136,60.937,42.33,70.11c-18.107,10.733-31.091,32.836-37.065,52.24c-3.172,10.303-4.671,35.377,8.803,40.047
	c12.167,4.218,24.469-10.324,31.513-18.026c11.357-12.419,20.895-26.344,31.037-39.741c0.175,0.743,0.452,1.552,0.967,2.537
	c3.264,6.247,8.505,10.677,14.012,14.91c7.192,5.528,15.313,9.897,23.355,14.038c4.519,2.327,9.896,5.698,15.226,6.728
	c-7.688,8.602-11.965,17.476-10.375,29.729c0.463,3.569,3.532,5.611,6.94,3.982c13.235-6.327,24.02-18.91,32.738-30.345
	c8.716-11.433,18.417-25.022,19.183-39.913C194.418,123.415,191.254,121.36,188.514,122.054z M165.711,163.377
	c-6.025,7.596-13.101,15.674-21.347,21.384c0.505-7.608,3.163-14.523,6.87-21.799c0.034-0.067,0.034-0.133,0.06-0.2
	c1.977-1.138,2.521-3.852,0.832-5.835c-3.029-3.559-7.783-5.082-11.921-7.024c-6.521-3.061-12.874-6.457-19.071-10.128
	c-6.232-3.692-12.095-7.958-17.23-13.077c-1.486-1.481-7.609-7.616-7.878-9.734c-0.12-0.944-1.354-1.294-1.797-0.465
	c-1.97-1.965-5.861-2.523-8.103,0.388c-14.239,18.488-27.812,43.829-48.672,55.595c-12.188,6.875-7.246-25.481-5.682-30.269
	c6.027-18.462,18.919-35.409,31.934-49.482c0.252-0.273,0.431-0.562,0.549-0.856c3.116-0.188,5.123-4.744,1.741-6.269
	C48.903,77.902,10.063,49.002,22.55,27.111C34.62,5.949,76.222,49.726,84.66,58.702c1.94,2.063,4.224,1.795,5.79,0.472
	c0.905,1.21,2.841,1.792,4.09,0.48c10.582-11.111,21.037-22.193,32.542-32.375c6.205-5.491,13.105-10.292,21.198-12.392
	c8.059-2.091,15.394,3.321,13.92,11.439c-2.198,12.107-12.151,23.493-19.361,33.01c-3.259,4.302-10.226,10.71-11.448,16.937
	c-0.697,0.466-1.386,0.962-2.081,1.517c-4.348,3.472-6.946,8.902-8.444,14.139c-1.266,4.425,3.2,7.098,6.601,6.184
	c0.052,0.628,0.964,0.869,1.364,0.295c-2.984,4.276,7.087,16.247,9.612,20.081c5.891,8.944,11.93,18.188,18.39,26.734
	c-0.082,3.356,4.918,6.326,7.56,3.219c5.818-6.841,11.837-12.033,19.611-15.316C180.898,144.255,172.413,154.927,165.711,163.377z"
	/>
</svg>
